#!OML:ASF E:\Steps\Project 1\Capture day 1\Session 2\Subject.ASF
:FULLY-SPECIFIED
:DEGREES
330
root 9.03381 15.4459 23.8611 -163.05 1.78586 176.303
lowerback -25.5761 -2.70926 -4.65765
upperback -1.74907 -1.64798 -0.188956
thorax 12.4985 -0.782295 1.9268
lowerneck 1.83467 1.27284 -2.42998
upperneck -5.74924 2.00877 4.75133
head -2.21919 0.990071 1.88846
rclavicle -3.78933e-015 -1.12313e-014
rhumerus -35.3248 -25.388 -74.6047
rradius 24.3897
rwrist 6.42065
rhand -8.65445 -58.526
rfingers 7.12502
rthumb 17.279 272.222
lclavicle -3.78933e-015 -1.12313e-014
lhumerus -30.8896 24.0441 72.0372
lradius 12.1594
lwrist -15.9582
lhand -28.3471 -9.33357
lfingers 7.12502
lthumb -1.72114 20.6392
rfemur -32.2884 4.96283 17.8891
rtibia 46.1151
rfoot -33.236 -7.77126
rtoes -29.667
lfemur -33.782 -5.90458 -24.9577
ltibia 49.4803
lfoot -19.3015 -1.77094
ltoes -25.9476
331
root 9.03239 15.5124 23.8101 -162.481 2.08156 176.265
lowerback -26.1924 -2.78893 -4.61524
upperback -2.08841 -1.65372 -0.257808
thorax 12.4353 -0.741698 1.82185
lowerneck 1.83369 1.32134 -2.45753
upperneck -5.01646 2.03144 4.8996
head -1.98332 0.995113 1.93717
rclavicle -1.57537e-014 -2.6339e-015
rhumerus -35.6461 -25.5448 -74.3385
rradius 23.2384
rwrist 7.54131
rhand -8.13442 -57.3094
rfingers 7.12502
rthumb 17.7795 273.483
lclavicle -1.57537e-014 -2.6339e-015
lhumerus -31.5708 24.0878 71.7852
lradius 11.901
lwrist -16.1157
lhand -27.5992 -9.64666
lfingers 7.12502
lthumb -0.998808 20.3307
rfemur -32.0261 4.90624 17.7566
rtibia 44.6256
rfoot -32.8544 -7.63838
rtoes -29.1156
lfemur -33.5061 -5.01419 -25.0335
ltibia 48.1233
lfoot -19.1595 -1.66382
ltoes -30.504
332
root 9.029 15.5807 23.7615 -161.805 2.36729 176.346
lowerback -26.8748 -2.83601 -4.39814
upperback -2.45162 -1.65756 -0.316782
thorax 12.3709 -0.687167 1.62812
lowerneck 1.78493 1.34349 -2.41398
upperneck -4.45511 2.03273 4.97904
head -1.79311 0.993223 1.95235
rclavicle -1.51729e-015 2.22639e-014
rhumerus -36.008 -25.723 -74.0812
rradius 22.2476
rwrist 9.06831
rhand -7.79222 -55.9501
rfingers 7.12502
rthumb 18.1088 274.873
lclavicle -1.51729e-015 2.22639e-014
lhumerus -32.1389 22.9444 72.1456
lradius 12.0473
lwrist -15.3415
lhand -27.187 -9.65401
lfingers 7.12502
lthumb -0.600661 20.3249
rfemur -32.0415 4.97741 17.7078
rtibia 43.4639
rfoot -32.5132 -7.31401
rtoes -28.9733
lfemur -33.5224 -4.33694 -24.9262
ltibia 46.9919
lfoot -18.8214 -1.73407
ltoes -33.6689
333
root 9.02387 15.6463 23.7251 -160.951 2.52457 176.265
lowerback -27.5053 -3.01507 -4.34688
upperback -2.91867 -1.7711 -0.347204
thorax 12.1678 -0.679438 1.52501
lowerneck 1.88313 1.38746 -2.4396
upperneck -4.13208 2.07011 5.03027
head -1.70916 1.00898 1.97112
rclavicle 3.96638e-015 4.05024e-015
rhumerus -36.4284 -25.459 -73.9497
rradius 21.6194
rwrist 10.5226
rhand -7.70479 -54.8749
rfingers 7.12502
rthumb 18.1929 275.956
lclavicle 3.96638e-015 4.05024e-015
lhumerus -32.8305 21.8492 72.5599
lradius 12.3046
lwrist -14.7915
lhand -26.5989 -9.9524
lfingers 7.12502
lthumb -0.0327214 20.0273
rfemur -32.4841 4.94178 17.4599
rtibia 42.6216
rfoot -32.2076 -6.9794
rtoes -28.7543
lfemur -33.8384 -4.08024 -24.9318
ltibia 45.9219
lfoot -18.2341 -2.12897
ltoes -33.8047
334
root 9.00808 15.7169 23.6744 -160.527 2.63905 176.16
lowerback -27.8968 -3.14464 -4.17772
upperback -3.24994 -1.89434 -0.38997
thorax 11.9891 -0.685819 1.33564
lowerneck 2.00282 1.52675 -2.54765
upperneck -3.6853 2.22114 5.03776
head -1.59479 1.08257 1.9874
rclavicle 1.05593e-014 2.90723e-015
rhumerus -36.9844 -24.7842 -73.9737
rradius 21.4856
rwrist 11.6917
rhand -7.77246 -54.2066
rfingers 7.12502
rthumb 18.1278 276.618
lclavicle 1.05593e-014 2.90723e-015
lhumerus -33.5669 20.4972 73.2119
lradius 12.7319
lwrist -13.9018
lhand -25.871 -10.621
lfingers 7.12502
lthumb 0.670386 19.3577
rfemur -32.2875 4.83171 17.1445
rtibia 41.5381
rfoot -31.7955 -6.60155
rtoes -28.1234
lfemur -33.3332 -4.16811 -24.9873
ltibia 44.3544
lfoot -17.4068 -2.07148
ltoes -34.6764
335
root 9.0115 15.7784 23.6327 -159.891 2.73524 176.191
lowerback -28.3914 -3.34651 -4.1535
upperback -3.61931 -2.06501 -0.313756
thorax 11.8301 -0.718538 1.34602
lowerneck 2.02475 1.64582 -2.64653
upperneck -3.34016 2.35279 5.00166
head -1.49446 1.14883 1.98919
rclavicle 5.40383e-015 -1.24986e-014
rhumerus -37.5433 -23.4996 -74.3738
rradius 21.8513
rwrist 12.0119
rhand -7.57804 -53.9612
rfingers 7.12502
rthumb 18.3148 276.881
lclavicle 5.40383e-015 -1.24986e-014
lhumerus -34.2915 18.949 74.0672
lradius 13.3739
lwrist -12.8125
lhand -25.4745 -11.428
lfingers 7.12502
lthumb 1.05328 18.5491
rfemur -32.3273 4.99135 17.0403
rtibia 40.5154
rfoot -31.2472 -6.35284
rtoes -27.3467
lfemur -33.8831 -4.26169 -24.7684
ltibia 44.2397
lfoot -17.1017 -1.98949
ltoes -37.1047
336
root 9.01138 15.8383 23.6028 -159.296 2.76805 176.314
lowerback -28.6224 -3.54425 -4.08381
upperback -3.98037 -2.28166 -0.152468
thorax 11.5475 -0.776787 1.41375
lowerneck 1.9006 1.75368 -2.69691
upperneck -3.21118 2.48314 4.88109
head -1.43522 1.21694 1.95624
rclavicle 1.75903e-014 1.16786e-014
rhumerus -38.0924 -22.4885 -74.5806
rradius 22.3691
rwrist 12.44
rhand -7.32709 -53.9809
rfingers 7.12502
rthumb 18.5562 276.884
lclavicle 1.75903e-014 1.16786e-014
lhumerus -35.0408 18.1248 74.6843
lradius 13.9635
lwrist -12.6103
lhand -25.2399 -12.3627
lfingers 7.12502
lthumb 1.27987 17.6132
rfemur -32.4468 5.21275 17.0014
rtibia 39.6411
rfoot -30.6705 -5.99866
rtoes -26.4582
lfemur -34.2039 -4.46636 -24.4322
ltibia 43.6596
lfoot -16.501 -1.87855
ltoes -39.4607
337
root 9.00388 15.8973 23.5695 -158.904 2.80107 176.456
lowerback -28.7047 -3.69094 -3.95836
upperback -4.25832 -2.47592 0.00213183
thorax 11.2811 -0.833531 1.45039
lowerneck 1.82539 1.88291 -2.74394
upperneck -3.1483 2.644 4.74178
head -1.40651 1.29945 1.91617
rclavicle 2.34193e-014 -1.3418e-015
rhumerus -38.723 -22.2504 -74.2762
rradius 22.6264
rwrist 13.3107
rhand -7.39137 -52.7088
rfingers 7.12502
rthumb 18.4944 278.15
lclavicle 2.34193e-014 -1.3418e-015
lhumerus -35.7922 16.958 75.557
lradius 14.8683
lwrist -11.8125
lhand -24.9624 -12.7056
lfingers 7.12502
lthumb 1.54791 17.2686
rfemur -32.393 5.43904 16.9568
rtibia 38.8195
rfoot -30.0391 -5.71388
rtoes -26.3481
lfemur -33.8771 -4.89609 -24.0831
ltibia 42.3404
lfoot -15.5249 -1.74578
ltoes -40.2866
338
root 8.99703 15.9461 23.5426 -158.39 2.82412 176.428
lowerback -28.9804 -3.79836 -3.88971
upperback -4.48524 -2.55967 -0.0248645
thorax 11.16 -0.836744 1.3495
lowerneck 1.84278 1.83759 -2.76909
upperneck -3.29752 2.5908 4.76851
head -1.45612 1.27249 1.93071
rclavicle -9.24038e-017 6.11263e-015
rhumerus -39.2172 -22.0474 -74.2857
rradius 22.9347
rwrist 13.6278
rhand -7.48573 -52.6944
rfingers 7.12502
rthumb 18.4036 278.156
lclavicle -9.24038e-017 6.11263e-015
lhumerus -36.4008 15.1007 76.6305
lradius 16.0898
lwrist -10.3904
lhand -24.5941 -12.581
lfingers 7.12502
lthumb 1.90357 17.3902
rfemur -32.5545 5.54036 16.7536
rtibia 38.1242
rfoot -29.4184 -5.66125
rtoes -26.8513
lfemur -34.0992 -5.54182 -23.8776
ltibia 41.8083
lfoot -14.958 -1.9201
ltoes -38.9555
339
root 8.98753 15.9914 23.5112 -158.181 2.97018 176.343
lowerback -29.0671 -3.75393 -3.78474
upperback -4.58781 -2.48309 -0.176023
thorax 11.0696 -0.779248 1.14782
lowerneck 1.77202 1.73066 -2.74818
upperneck -3.3707 2.45844 4.8363
head -1.4626 1.20699 1.95233
rclavicle -2.17421e-015 1.04113e-014
rhumerus -39.7617 -21.8015 -74.4654
rradius 23.4504
rwrist 13.3589
rhand -7.70625 -53.01
rfingers 7.12502
rthumb 18.1915 277.821
lclavicle -2.17421e-015 1.04113e-014
lhumerus -36.923 13.5471 77.4506
lradius 17.1444
lwrist -9.59836
lhand -24.2402 -12.7391
lfingers 7.12502
lthumb 2.24539 17.2288
rfemur -32.1602 5.6531 16.4856
rtibia 37.033
rfoot -28.8282 -5.5325
rtoes -27.3101
lfemur -33.7938 -6.09965 -23.8228
ltibia 40.907
lfoot -14.4614 -2.00126
ltoes -38.1629
